<?xml version="1.0" standalone="no"?>
<!DOCTYPE svg PUBLIC "-//W3C//DTD SVG 20010904//EN"
 "http://www.w3.org/TR/2001/REC-SVG-20010904/DTD/svg10.dtd">
<svg version="1.0" xmlns="http://www.w3.org/2000/svg"
 width="190.000000pt" height="190.000000pt" viewBox="0 0 190.000000 190.000000"
 preserveAspectRatio="xMidYMid meet">
<metadata>
Created by potrace 1.11, written by Peter Selinger 2001-2013
</metadata>
<g transform="translate(0.000000,190.000000) scale(0.100000,-0.100000)"
fill="#000000" stroke="none">
<path d="M652 1595 c-186 -183 -199 -213 -127 -286 l34 -34 -145 -146 c-193
-195 -193 -173 1 -369 l146 -146 -26 -29 c-37 -39 -48 -72 -35 -109 6 -19 69
-90 159 -180 148 -148 149 -149 195 -150 l47 0 156 156 c156 156 156 156 156
202 0 43 -3 49 -82 127 -44 45 -81 85 -81 89 0 4 7 13 16 21 13 11 22 6 63
-37 101 -104 117 -115 161 -120 l43 -4 149 148 c144 142 175 180 172 212 -1 8
-2 22 -3 31 -1 17 -278 301 -309 318 -9 5 -32 11 -50 14 -30 5 -40 -1 -119
-79 -48 -46 -90 -84 -93 -84 -4 0 -14 8 -23 18 -15 16 -11 23 63 97 80 81 100
118 85 164 -6 19 -225 246 -294 304 -25 21 -42 27 -70 25 -32 -2 -53 -19 -189
-153z m32 -446 c97 -98 135 -126 166 -123 8 1 21 2 28 3 8 0 43 29 78 63 65
62 65 62 85 42 19 -20 19 -20 -34 -75 -30 -29 -60 -65 -66 -78 -21 -39 -5 -82
54 -143 59 -60 63 -69 41 -87 -11 -9 -26 1 -75 50 -33 34 -61 58 -61 55 0 -4
-6 -4 -12 1 -7 4 -26 8 -43 8 -24 0 -47 -17 -121 -90 -51 -49 -104 -101 -118
-114 l-26 -25 -140 141 c-114 115 -140 145 -140 169 0 23 25 53 138 166 75 76
139 138 142 138 3 0 50 -45 104 -101z"/>
</g>
</svg>
